<?xml version="1.0" standalone="no"?>
<!DOCTYPE svg PUBLIC "-//W3C//DTD SVG 1.0//EN" "http://www.w3.org/TR/2001/REC-SVG-20010904/DTD/svg10.dtd">
<svg xmlns="http://www.w3.org/2000/svg" xmlns:xlink="http://www.w3.org/1999/xlink" id="body_1" width="667" height="667">

<defs>
    <clipPath  id="1">

    <path id=""  clip-rule="evenodd" transform="matrix(1 0 0 1 0 0)"  d="M0 500L0 0L0 0L500 0L500 0L500 500L500 500L0 500z" />    </clipPath>
</defs>

<g transform="matrix(1.3333 0 0 1.3333 0 0)">
	<g clip-path="url(#1)" >
    <path id=""  transform="matrix(1 0 0 -1 0 500)"  d="M382.70834 140.02078C 373.62503 111.83328 359.9792 90.916626 340.87503 75.479126L340.87503 75.479126L340.87503 75.479126C 321.7917 59.99997 296.33334 51.833313 264.52087 49.104156L264.52087 49.104156L258.1667 91.8125C 279.06253 94.5625 294.52087 99.10416 304.52084 106.39581L304.52084 106.39581L304.52084 106.39581C 308.14584 109.10416 315.4375 117.29166 315.4375 117.29166L315.4375 117.29166L239.97917 359.0833L239.97917 359.0833L239.97917 359.0833L239.97917 359.0833L302.6875 359.0833L302.6875 359.0833L346.33334 178.1875L346.33334 178.1875L392.70834 359.0833L392.70834 359.0833L392.70834 359.0833L392.70834 359.0833L453.6042 359.0833L453.6042 359.0833L382.70834 139.99997zM132.70834 196.35416C 140.87502 185.45834 151.79169 180.89584 167.22919 180.89584L167.22919 180.89584L167.22919 180.89584C 174.52084 180.89584 181.79169 181.8125 188.14584 184.54169L188.14584 184.54169L188.14584 184.54169C 194.52084 187.25003 201.79167 190.91669 210.85417 196.35419L210.85417 196.35419L236.33334 160.00003C 215.43752 142.70834 191.79169 134.54169 164.52086 134.54169L164.52086 134.54169L164.52086 134.54169C 142.68752 134.54169 124.52085 139.08334 108.16669 148.16669L108.16669 148.16669L108.16669 148.16669C 92.29017 157.53262 79.6118 171.47446 71.79169 188.16669L71.79169 188.16669L71.79169 188.16669C 63.62502 205.45837 59.062515 225.45834 59.062515 249.10417L59.062515 249.10417L59.062515 249.10417C 59.062515 271.8125 63.62501 292.7292 71.77085 310L71.77085 310L71.77085 310C 79.54859 327.20593 92.21238 341.7461 108.18752 351.8125L108.18752 351.8125L108.18752 351.8125C 123.625015 361.8125 142.70836 366.3542 163.62502 366.3542L163.62502 366.3542L163.62502 366.3542C 178.18752 366.3542 191.81252 364.5417 202.72919 360L202.72919 360L202.72919 360C 214.97647 355.25928 226.34225 348.49896 236.3542 340L236.3542 340L210.89586 305.45837C 204.43274 310.2302 197.4166 314.20343 190.00002 317.29166L190.00002 317.29166L190.00002 317.29166C 183.64584 320 175.45834 320.91663 168.16667 320.91663L168.16667 320.91663L168.16667 320.91663C 137.27083 320.91663 121.81251 297.29163 121.81251 249.12497L121.81251 249.12497L121.81251 249.12497C 120.91667 224.54163 125.458336 207.29166 132.72917 196.37497L132.72917 196.37497L132.72917 196.37497L132.72917 196.37497L132.70834 196.37497zM249.95834 500C 111.791664 500 0 388.1875 0 250L0 250L0 250C -0.044239894 183.68231 26.280748 120.068115 73.17445 73.17441L73.17445 73.17441L73.17445 73.17441C 120.068146 26.2807 183.68234 -0.04425049 250 0L250 0L250 0C 388.18753 0 500 111.81247 500 250L500 250L500 250C 499.9792 388.1875 387.25 500 249.95834 500z" stroke="#FFFFFF" stroke-width="27.777779" fill="#000000" fill-rule="nonzero" />
	</g>
</g>
</svg>