<?xml version="1.0" standalone="no"?>
<!DOCTYPE svg PUBLIC "-//W3C//DTD SVG 1.0//EN" "http://www.w3.org/TR/2001/REC-SVG-20010904/DTD/svg10.dtd">
<svg xmlns="http://www.w3.org/2000/svg" xmlns:xlink="http://www.w3.org/1999/xlink" id="body_1" width="64" height="64">

<defs>
    <clipPath  id="1">

    <path id=""  clip-rule="evenodd" transform="matrix(1 0 0 1 0 0)"  d="M0 48L0 0L0 0L48 0L48 0L48 48L48 48L0 48z" />    </clipPath>
</defs>

<g transform="matrix(1.3333 0 0 1.3333 0 0)">
	<g clip-path="url(#1)" >
    <path id=""  transform="matrix(1 0 0 -1 0 48)"  d="M41.709 15.815247C 41.403 14.036247 40.3065 12.479996 38.694 11.549248L38.694 11.549248L38.694 11.549248C 37.179 10.673996 35.31675 10.395748 33.35775 10.116749L33.35775 10.116749L33.35775 10.116749C 32.2875 9.963749 31.16175 9.797249 30.078 9.533249L30.078 9.533249L30.078 9.533249C 27.1875 8.824497 24.407999 7.4347496 21.71175 6.100498L21.71175 6.100498L21.71175 6.100498C 18.2655 4.390499 15.01425 2.779499 11.99775 2.779499L11.99775 2.779499L11.99775 2.779499C 10.42725 2.779499 9.024 3.2242508 7.68975 4.154999L7.68975 4.154999L7.68975 4.154999C 4.63275 6.2669983 4.7850003 10.227749 5.14725 12.396L5.14725 12.396L5.14725 12.396C 5.481 14.424751 6.4117503 16.329 7.3012505 18.1485L7.3012505 18.1485L7.3012505 18.1485C 7.3567505 18.2595 7.3987503 18.357 7.4542503 18.468L7.4542503 18.468L7.4542503 18.468C 7.76025 18.357 8.07975 18.273 8.41425 18.2175L8.41425 18.2175L8.41425 18.2175C 7.8862505 15.2715 9.387 12.228001 12.30525 10.727249L12.30525 10.727249L12.83325 10.449749L12.83325 10.449749L13.40325 10.658249L13.40325 10.658249L13.40325 10.658249C 15.8355 11.520748 18.08625 12.923248 20.07375 14.799747L20.07375 14.799747L20.07375 14.799747C 21.171776 15.823597 22.142296 16.976183 22.964249 18.232498L22.964249 18.232498L22.964249 18.232498C 23.283749 18.176998 23.603249 18.162748 23.924248 18.162748L23.924248 18.162748L23.924248 18.162748C 26.814747 18.162748 29.246998 20.150248 29.941498 22.817997L29.941498 22.817997L29.941498 22.817997L29.941498 22.817997L32.27625 22.817997L32.27625 22.817997L32.27625 22.817997C 32.97075 20.135998 35.403748 18.162746 38.2935 18.162746L38.2935 18.162746L38.2935 18.162746C 39.39892 18.162489 40.48397 18.460178 41.434498 19.024496L41.434498 19.024496L41.434498 19.024496C 41.795998 17.974497 41.906998 16.898247 41.711998 15.814495zM9.384001 27.863998C 11.316001 27.863998 12.886501 26.293499 12.886501 24.361498L12.886501 24.361498L12.886501 24.361498C 12.886501 22.429497 11.316001 20.858997 9.384001 20.858997zM30.021 25.5705C 29.757 26.876999 29.091 28.043999 28.146 28.90575L28.146 28.90575L31.022999 34.7145L31.022999 34.7145L33.92775 28.7805L33.92775 28.7805L33.92775 28.7805C 33.043606 27.906149 32.43905 26.788918 32.19075 25.5705L32.19075 25.5705L23.05875 27.766499L23.05875 27.766499L23.25375 27.808498L23.25375 27.808498L23.25375 27.808498L23.25375 27.808498L23.29575 27.808498L23.29575 27.808498L23.29575 27.808498C 23.35125 27.823498 23.40675 27.823498 23.46225 27.836248L23.46225 27.836248L23.46225 27.836248L23.46225 27.836248L23.51775 27.836248L23.51775 27.836248L23.51775 27.836248C 23.57325 27.836248 23.61525 27.851248 23.67075 27.851248L23.67075 27.851248L23.67075 27.851248L23.67075 27.851248L24.213 27.851248L24.213 27.851248L24.213 27.851248C 24.2685 27.851248 24.3105 27.836248 24.35175 27.836248L24.35175 27.836248L24.35175 27.836248C 24.3795 27.836248 24.39375 27.836248 24.4215 27.821249L24.4215 27.821249L24.4215 27.821249C 24.477 27.80625 24.519 27.80625 24.5745 27.793499L24.5745 27.793499L24.5745 27.793499C 24.589499 27.793499 24.60225 27.793499 24.63 27.7785L24.63 27.7785L24.824999 27.7365C 24.894749 27.7215 24.950249 27.70875 25.005 27.681L25.005 27.681L25.005 27.681C 25.019999 27.681 25.03275 27.666 25.0605 27.666L25.0605 27.666L25.0605 27.666C 25.102499 27.651001 25.157999 27.63825 25.19925 27.6105L25.19925 27.6105L25.19925 27.6105C 25.214249 27.6105 25.227 27.5955 25.24125 27.5955L25.24125 27.5955L25.24125 27.5955C 25.29675 27.56775 25.35225 27.553501 25.40775 27.525751L25.40775 27.525751L25.40775 27.525751L25.40775 27.525751L25.422749 27.525751L25.422749 27.525751L25.422749 27.525751C 25.487185 27.501694 25.548004 27.468885 25.603498 27.428251L25.603498 27.428251L25.603498 27.428251C 25.673248 27.400501 25.728748 27.358501 25.783499 27.330751L25.783499 27.330751L25.783499 27.330751C 25.798498 27.330751 25.798498 27.315752 25.811249 27.315752L25.811249 27.315752L25.811249 27.315752C 25.866749 27.288002 25.908749 27.246002 25.964249 27.218252L25.964249 27.218252L25.979248 27.203253C 26.145748 27.078003 26.298748 26.939253 26.451748 26.800503L26.451748 26.800503L26.466747 26.785503C 26.605497 26.632504 26.744247 26.466003 26.856747 26.285254L26.856747 26.285254L26.856747 26.285254C 27.22956 25.715202 27.42768 25.048637 27.426746 24.367504L27.426746 24.367504L27.426746 24.367504C 27.426746 22.435505 25.856247 20.865004 23.924246 20.865004L23.924246 20.865004L23.924246 20.865004C 21.992245 20.865004 20.421745 22.435503 20.421745 24.367504L20.421745 24.367504L20.421745 24.367504C 20.406746 25.993504 21.533245 27.369003 23.061745 27.757504zM41.792248 24.3615C 41.792248 22.4295 40.22175 20.859 38.28975 20.859L38.28975 20.859L38.28975 20.859C 36.35775 20.859 34.78725 22.429499 34.78725 24.3615L34.78725 24.3615L34.78725 24.3615C 34.78725 24.987 34.95375 25.584 35.24475 26.0985L35.24475 26.0985L35.24475 26.0985C 35.35575 26.293499 35.49525 26.488499 35.63475 26.6535L35.63475 26.6535L35.63475 26.6535C 35.77978 26.823568 35.94301 26.977236 36.121502 27.11175L36.121502 27.11175L36.1365 27.126749C 36.2475 27.20925 36.372753 27.29325 36.498 27.377249L36.498 27.377249L36.498 27.377249C 36.498 27.377249 36.513 27.377249 36.513 27.392248L36.513 27.392248L36.513 27.392248C 36.5685 27.419998 36.624 27.461998 36.6795 27.489748L36.6795 27.489748L36.6795 27.489748C 36.6945 27.489748 36.70725 27.504747 36.7215 27.504747L36.7215 27.504747L36.7215 27.504747C 36.777 27.532497 36.846752 27.560247 36.9165 27.587248L36.9165 27.587248L36.9165 27.587248C 36.986248 27.614248 37.05525 27.642748 37.1115 27.669748L37.1115 27.669748L37.1115 27.669748C 37.1265 27.669748 37.139248 27.684748 37.1535 27.684748L37.1535 27.684748L37.1535 27.684748C 37.209 27.699747 37.2645 27.726748 37.32 27.740248L37.32 27.740248L37.32 27.740248C 37.335 27.740248 37.362 27.755247 37.3755 27.755247L37.3755 27.755247L37.5705 27.797247L37.5705 27.797247L37.5705 27.797247L37.5705 27.797247L37.5855 27.797247L37.5855 27.797247L37.794 27.839247L37.794 27.839247L37.794 27.839247C 37.809 27.839247 37.836 27.839247 37.8495 27.854246L37.8495 27.854246L37.8495 27.854246C 37.905 27.854246 37.9605 27.869246 38.016 27.869246L38.016 27.869246L38.016 27.869246L38.016 27.869246L38.08575 27.869246L38.08575 27.869246L38.08575 27.869246C 38.155502 27.869246 38.2245 27.884245 38.30775 27.884245L38.30775 27.884245L38.30775 27.884245L38.30775 27.884245L38.48775 27.884245L38.48775 27.884245L38.48775 27.884245C 38.53916 27.886423 38.59063 27.88163 38.64075 27.869995L38.64075 27.869995L38.64075 27.869995L38.64075 27.869995L38.6685 27.869995L38.6685 27.869995L38.6685 27.869995C 38.7795 27.854996 38.8905 27.842245 39.00225 27.814495L39.00225 27.814495L39.00225 27.814495C 40.62838 27.46637 41.791496 26.031212 41.79525 24.368244L41.79525 24.368244L20.085001 45.2205L20.085001 45.2205L20.085001 45.2205L20.085001 45.2205L41.94525 45.2205L41.94525 45.2205L36.92775 30.420002L36.92775 30.420002L36.92775 30.420002C 36.71925 30.378002 36.51075 30.309002 36.30225 30.240002L36.30225 30.240002L31.022251 41.010002L31.022251 41.010002L25.727251 30.309002L25.727251 30.309002L25.727251 30.309002C 25.518751 30.378752 25.296751 30.420002 25.07475 30.462002zM44.502 24.3615C 44.502 27.251999 42.5145 29.68425 39.84675 30.37875L39.84675 30.37875L45.82275 48L45.82275 48L45.82275 48L45.82275 48L16.2075 48L16.2075 48L22.197 30.3225L22.197 30.3225L22.197 30.3225C 19.612501 29.5725 17.70825 27.1815 17.70825 24.3465L17.70825 24.3465L17.70825 24.3465C 17.70825 22.261501 18.75825 20.4135 20.334751 19.27425L20.334751 19.27425L20.334751 19.27425C 19.709251 18.38475 18.987001 17.56425 18.167252 16.786499L18.167252 16.786499L18.167252 16.786499C 16.624502 15.341248 14.915252 14.229 13.067251 13.4939995L13.067251 13.4939995L13.067251 13.4939995C 11.399251 14.6189995 10.677001 16.606499 11.330252 18.3855L11.330252 18.3855L11.330252 18.3855C 13.872751 19.164 15.721502 21.54 15.721502 24.333L15.721502 24.333L15.721502 24.333C 15.721502 27.76575 12.928502 30.54525 9.509253 30.54525L9.509253 30.54525L9.509253 30.54525C 6.0765023 30.54525 3.2842522 27.75225 3.2842522 24.32025L3.2842522 24.32025L3.2842522 24.32025C 3.285069 22.683914 3.9348192 21.114697 5.091002 19.956749L5.091002 19.956749L4.798502 19.359C 3.868502 17.44125 2.8110018 15.272999 2.408252 12.834L2.408252 12.834L2.408252 12.834C 1.6020019 7.970249 2.922752 4.0649986 6.105752 1.8554993L6.105752 1.8554993L6.105752 1.8554993C 7.905752 0.61800003 9.870752 -0.006752014 11.997752 -0.006752014L11.997752 -0.006752014L11.997752 -0.006752014C 15.652502 -0.006752014 19.362751 1.8277473 22.947754 3.6067467L22.947754 3.6067467L22.947754 3.6067467C 25.505255 4.8712463 28.145254 6.191246 30.744003 6.831745L30.744003 6.831745L30.744003 6.831745C 31.704002 7.067997 32.703754 7.206745 33.759003 7.359745L33.759003 7.359745L33.759003 7.359745C 35.8995 7.665745 38.109 7.9852448 40.096504 9.138744L40.096504 9.138744L40.096504 9.138744C 42.417004 10.486496 44.001755 12.738743 44.460003 15.323246L44.460003 15.323246L44.460003 15.323246C 44.80725 17.310745 44.460003 19.311747 43.570503 21.062996L43.570503 21.062996L43.570503 21.062996C 44.168255 22.022995 44.500504 23.147995 44.500504 24.355495z" stroke="#FFFFFF" stroke-width="1" fill="#99424F" fill-rule="nonzero" />
	</g>
</g>
</svg>