<?xml version="1.0" encoding="UTF-8"?>
<svg xmlns="http://www.w3.org/2000/svg" xmlns:xlink="http://www.w3.org/1999/xlink" width="86pt" height="86pt" viewBox="0 0 86 86" version="1.1">
<g id="surface1">
<path style=" stroke:none;fill-rule:nonzero;fill:rgb(100%,100%,100%);fill-opacity:1;" d="M 43 0 L 81.003906 21.5 L 81.003906 64.5 L 43 86 L 4.996094 64.5 L 4.996094 21.5 Z M 43 0 "/>
<path style=" stroke:none;fill-rule:nonzero;fill:rgb(55.686275%,83.921569%,98.431373%);fill-opacity:1;" d="M 74.21875 63.015625 L 44.253906 79.964844 L 44.253906 66.765625 L 62.921875 56.496094 Z M 76.269531 61.160156 L 76.269531 25.714844 L 65.300781 32.042969 L 65.300781 54.824219 Z M 11.660156 63.015625 L 41.625 79.964844 L 41.625 66.765625 L 22.953125 56.496094 Z M 9.609375 61.160156 L 9.609375 25.714844 L 20.574219 32.042969 L 20.574219 54.824219 Z M 10.894531 23.421875 L 41.625 6.035156 L 41.625 18.796875 L 21.9375 29.628906 L 21.785156 29.714844 Z M 74.984375 23.421875 L 44.253906 6.035156 L 44.253906 18.796875 L 63.941406 29.628906 L 64.089844 29.714844 Z M 74.984375 23.421875 "/>
<path style=" stroke:none;fill-rule:nonzero;fill:rgb(10.980392%,47.058824%,75.294118%);fill-opacity:1;" d="M 41.625 63.761719 L 23.207031 53.636719 L 23.207031 33.570312 L 41.625 44.203125 Z M 44.253906 63.761719 L 62.671875 53.636719 L 62.671875 33.570312 L 44.253906 44.203125 Z M 24.453125 31.246094 L 42.941406 21.078125 L 61.433594 31.246094 L 42.941406 41.925781 Z M 24.453125 31.246094 "/>
</g>
</svg>
